<svg width="35" height="30" viewBox="0 0 35 30" fill="none" xmlns="http://www.w3.org/2000/svg">
<path d="M32.8661 14.1176C32.376 14.1176 31.9652 13.9485 31.6336 13.6103C31.3021 13.2721 31.1363 12.8529 31.1363 12.3529C31.1363 11.8529 31.3021 11.4338 31.6336 11.0956C31.9652 10.7574 32.376 10.5882 32.8661 10.5882C33.3562 10.5882 33.767 10.7574 34.0986 11.0956C34.4301 11.4338 34.5959 11.8529 34.5959 12.3529C34.5959 12.8529 34.4301 13.2721 34.0986 13.6103C33.767 13.9485 33.3562 14.1176 32.8661 14.1176ZM31.1363 8.82353V0H34.5959V8.82353H31.1363ZM13.8384 15.8824C11.9356 15.8824 10.3067 15.1912 8.95169 13.8088C7.59668 12.4265 6.91918 10.7647 6.91918 8.82353C6.91918 6.88235 7.59668 5.22059 8.95169 3.83824C10.3067 2.45588 11.9356 1.76471 13.8384 1.76471C15.7411 1.76471 17.37 2.45588 18.725 3.83824C20.08 5.22059 20.7575 6.88235 20.7575 8.82353C20.7575 10.7647 20.08 12.4265 18.725 13.8088C17.37 15.1912 15.7411 15.8824 13.8384 15.8824ZM0 30V25.0588C0 24.0588 0.252262 23.1397 0.756785 22.3015C1.26131 21.4632 1.9316 20.8235 2.76767 20.3824C4.55513 19.4706 6.37141 18.7868 8.21653 18.3309C10.0616 17.875 11.9356 17.6471 13.8384 17.6471C15.7411 17.6471 17.6151 17.875 19.4602 18.3309C21.3053 18.7868 23.1216 19.4706 24.909 20.3824C25.7451 20.8235 26.4154 21.4632 26.9199 22.3015C27.4245 23.1397 27.6767 24.0588 27.6767 25.0588V30H0ZM3.45959 26.4706H24.2171V25.0588C24.2171 24.7353 24.1378 24.4412 23.9793 24.1765C23.8207 23.9118 23.6117 23.7059 23.3522 23.5588C21.7954 22.7647 20.2242 22.1691 18.6385 21.7721C17.0529 21.375 15.4528 21.1765 13.8384 21.1765C12.2239 21.1765 10.6238 21.375 9.03818 21.7721C7.45253 22.1691 5.8813 22.7647 4.32449 23.5588C4.06502 23.7059 3.856 23.9118 3.69744 24.1765C3.53887 24.4412 3.45959 24.7353 3.45959 25.0588V26.4706ZM13.8384 12.3529C14.7897 12.3529 15.6042 12.0074 16.2817 11.3162C16.9592 10.625 17.2979 9.79412 17.2979 8.82353C17.2979 7.85294 16.9592 7.02206 16.2817 6.33088C15.6042 5.63971 14.7897 5.29412 13.8384 5.29412C12.887 5.29412 12.0725 5.63971 11.395 6.33088C10.7175 7.02206 10.3788 7.85294 10.3788 8.82353C10.3788 9.79412 10.7175 10.625 11.395 11.3162C12.0725 12.0074 12.887 12.3529 13.8384 12.3529Z" fill="white"/>
</svg>
