<svg width="34" height="34" viewBox="0 0 34 34" fill="none" xmlns="http://www.w3.org/2000/svg">
<path d="M16.5501 0.391357C7.43006 0.391357 0.0283203 7.7931 0.0283203 16.9131C0.0283203 26.0331 7.43006 33.4348 16.5501 33.4348C25.6701 33.4348 33.0718 26.0331 33.0718 16.9131C33.0718 7.7931 25.6701 0.391357 16.5501 0.391357ZM16.5501 30.1305C9.26397 30.1305 3.33267 24.1992 3.33267 16.9131C3.33267 9.62701 9.26397 3.69571 16.5501 3.69571C23.8361 3.69571 29.7675 9.62701 29.7675 16.9131C29.7675 24.1992 23.8361 30.1305 16.5501 30.1305ZM24.1335 9.61049L13.2457 20.4983L8.96658 16.2357L6.63702 18.5653L13.2457 25.174L19.8544 18.5653L26.4631 11.9566L24.1335 9.61049Z" fill="white"/>
</svg>
