<svg width="35" height="31" viewBox="0 0 35 31" fill="none" xmlns="http://www.w3.org/2000/svg">
<path d="M13.7678 13.7681C17.5713 13.7681 20.6519 10.6875 20.6519 6.88406C20.6519 3.08062 17.5713 0 13.7678 0C9.9644 0 6.88379 3.08062 6.88379 6.88406C6.88379 10.6875 9.9644 13.7681 13.7678 13.7681ZM13.7678 3.44203C15.661 3.44203 17.2099 4.99094 17.2099 6.88406C17.2099 8.77717 15.661 10.3261 13.7678 10.3261C11.8747 10.3261 10.3258 8.77717 10.3258 6.88406C10.3258 4.99094 11.8747 3.44203 13.7678 3.44203Z" fill="white"/>
<path d="M3.44203 24.0942C3.82065 22.8551 9.13859 20.6522 13.7681 20.6522C13.7681 19.4475 13.9918 18.2944 14.3705 17.2274C9.6721 17.0553 0 19.3958 0 24.0942V27.5362H16.4185C15.5236 26.538 14.8179 25.385 14.3705 24.0942H3.44203Z" fill="white"/>
<path d="M29.9971 24.1287C30.6167 23.1133 30.9781 21.9258 30.9781 20.6522C30.9781 16.8488 27.8975 13.7682 24.094 13.7682C20.2906 13.7682 17.21 16.8488 17.21 20.6522C17.21 24.4557 20.2906 27.5363 24.094 27.5363C25.3676 27.5363 26.5551 27.1577 27.5705 26.5553C29.171 28.1559 30.3585 29.3434 31.9935 30.9783L34.4201 28.5517C31.8386 25.9702 33.0605 27.1749 29.9971 24.1287ZM24.094 24.0943C22.2009 24.0943 20.652 22.5454 20.652 20.6522C20.652 18.7591 22.2009 17.2102 24.094 17.2102C25.9871 17.2102 27.536 18.7591 27.536 20.6522C27.536 22.5454 25.9871 24.0943 24.094 24.0943Z" fill="white"/>
</svg>
