<svg width="31" height="34" viewBox="0 0 31 34" fill="none" xmlns="http://www.w3.org/2000/svg">
<path d="M0 33.0435V30.0395H30.0395V33.0435H0ZM3.00395 28.5376V19.5257C2.17787 18.1739 1.53953 16.7408 1.08893 15.2263C0.63834 13.7118 0.413043 12.166 0.413043 10.5889C0.413043 9.06192 0.607049 7.55995 0.995059 6.083C1.38307 4.60606 1.83992 3.15415 2.36561 1.72727C2.56588 1.20158 2.8913 0.782279 3.3419 0.469368C3.79249 0.156456 4.29315 0 4.84387 0C5.61989 0 6.28327 0.262846 6.83399 0.788538C7.38472 1.31423 7.61001 1.94005 7.50988 2.66601L7.09684 6.083C6.94664 7.28459 7.05303 8.42358 7.41601 9.5C7.77899 10.5764 8.32345 11.5214 9.04941 12.335C9.77536 13.1486 10.6515 13.7994 11.6779 14.2876C12.7042 14.7757 13.8182 15.0198 15.0198 15.0198C16.5217 15.0198 18.03 15.1762 19.5445 15.4891C21.059 15.802 22.3794 16.2464 23.5059 16.8221C24.6324 17.3979 25.5023 18.1301 26.1156 19.0188C26.7289 19.9074 27.0356 21.0026 27.0356 22.3043V28.5376H3.00395ZM6.00791 25.5336H24.0316V22.3043C24.0316 21.7036 23.8814 21.1716 23.581 20.7085C23.2806 20.2454 22.8551 19.8762 22.3043 19.6008C21.278 19.1001 20.0889 18.7121 18.7372 18.4368C17.3854 18.1614 16.1462 18.0237 15.0198 18.0237C13.3676 18.0237 11.8343 17.6858 10.42 17.0099C9.0056 16.334 7.80402 15.4265 6.81522 14.2876C5.82642 13.1486 5.08169 11.8343 4.58103 10.3449C4.08037 8.8554 3.93017 7.30962 4.13043 5.70751C3.88011 6.4585 3.69862 7.25955 3.58597 8.11067C3.47332 8.96179 3.417 9.78788 3.417 10.5889C3.417 12.0408 3.67358 13.4364 4.18676 14.7757C4.69993 16.115 5.30698 17.4229 6.00791 18.6996V25.5336ZM15.0198 13.5178C13.3676 13.5178 11.9532 12.9295 10.7767 11.753C9.60013 10.5764 9.01186 9.16206 9.01186 7.50988C9.01186 5.85771 9.60013 4.44335 10.7767 3.2668C11.9532 2.09025 13.3676 1.50198 15.0198 1.50198C16.6719 1.50198 18.0863 2.09025 19.2628 3.2668C20.4394 4.44335 21.0277 5.85771 21.0277 7.50988C21.0277 9.16206 20.4394 10.5764 19.2628 11.753C18.0863 12.9295 16.6719 13.5178 15.0198 13.5178ZM15.0198 10.5138C15.8458 10.5138 16.553 10.2197 17.1413 9.63142C17.7296 9.04315 18.0237 8.33597 18.0237 7.50988C18.0237 6.68379 17.7296 5.97661 17.1413 5.38834C16.553 4.80007 15.8458 4.50593 15.0198 4.50593C14.1937 4.50593 13.4865 4.80007 12.8982 5.38834C12.3099 5.97661 12.0158 6.68379 12.0158 7.50988C12.0158 8.33597 12.3099 9.04315 12.8982 9.63142C13.4865 10.2197 14.1937 10.5138 15.0198 10.5138ZM9.01186 28.5376V27.1482C9.01186 25.471 9.59387 24.0316 10.7579 22.83C11.9219 21.6285 13.3426 21.0277 15.0198 21.0277H21.0277V24.0316H15.0198C14.1686 24.0316 13.4552 24.3383 12.8794 24.9516C12.3037 25.5649 12.0158 26.2971 12.0158 27.1482V28.5376H9.01186Z" fill="white"/>
</svg>
